<svg xmlns="http://www.w3.org/2000/svg" width="1200" height="675" viewBox="0 0 1200 675" role="img" aria-label="Model Governance &amp; Secure Deployment">
  <defs>
    <linearGradient id="bgartsentinel" x1="0" y1="0" x2="1" y2="1">
      <stop offset="0%" stop-color="#101B33"/><stop offset="100%" stop-color="#1B2A4A"/>
    </linearGradient>
    <radialGradient id="glartsentinel" cx="0.8" cy="0.1" r="0.7">
      <stop offset="0%" stop-color="#8FA8E0" stop-opacity="0.28"/>
      <stop offset="100%" stop-color="#8FA8E0" stop-opacity="0"/>
    </radialGradient>
    <pattern id="grartsentinel" width="44" height="44" patternUnits="userSpaceOnUse">
      <path d="M44 0H0V44" fill="none" stroke="#FFFFFF" stroke-opacity="0.045" stroke-width="1"/>
    </pattern>
    <marker id="ar" markerWidth="9" markerHeight="9" refX="8" refY="4.5" orient="auto">
      <path d="M0 0 L9 4.5 L0 9 z" fill="#8FA8E0" fill-opacity="0.55"/>
    </marker>
  </defs>

  <rect width="1200" height="675" fill="url(#bgartsentinel)"/>
  <rect width="1200" height="675" fill="url(#grartsentinel)"/>
  <rect width="1200" height="675" fill="url(#glartsentinel)"/>
  <rect x="0" y="0" width="7" height="675" fill="#8FA8E0"/>

  <rect x="248" y="270" width="104" height="150" rx="10" fill="none" stroke="#8FA8E0" stroke-opacity="0.75" stroke-width="3"/>
  <path d="M270 345 l18 20 l34 -44" stroke="#8FA8E0" stroke-opacity="0.8" stroke-width="4" fill="none" stroke-linecap="round" stroke-linejoin="round"/>
  <rect x="468" y="270" width="104" height="150" rx="10" fill="none" stroke="#8FA8E0" stroke-opacity="0.62" stroke-width="3"/>
  <path d="M490 345 l18 20 l34 -44" stroke="#8FA8E0" stroke-opacity="0.8" stroke-width="4" fill="none" stroke-linecap="round" stroke-linejoin="round"/>
  <rect x="688" y="270" width="104" height="150" rx="10" fill="none" stroke="#8FA8E0" stroke-opacity="0.49" stroke-width="3"/>
  <path d="M710 345 l18 20 l34 -44" stroke="#8FA8E0" stroke-opacity="0.8" stroke-width="4" fill="none" stroke-linecap="round" stroke-linejoin="round"/>
  <circle cx="140" cy="345" r="34" fill="#8FA8E0" fill-opacity="0.28" stroke="#8FA8E0" stroke-opacity="0.6"/>
  <path d="M180 345 L244 345" stroke="#8FA8E0" stroke-opacity="0.5" stroke-width="2" marker-end="url(#ar)"/>
  <path d="M356 345 L464 345" stroke="#8FA8E0" stroke-opacity="0.5" stroke-width="2" marker-end="url(#ar)"/>
  <path d="M576 345 L684 345" stroke="#8FA8E0" stroke-opacity="0.5" stroke-width="2" marker-end="url(#ar)"/>
  <path d="M796 345 L890 345" stroke="#8FA8E0" stroke-opacity="0.5" stroke-width="2" marker-end="url(#ar)"/>
  <rect x="900" y="280" width="180" height="130" rx="12" fill="#8FA8E0" fill-opacity="0.2" stroke="#8FA8E0" stroke-opacity="0.6" stroke-width="2"/>
  <rect x="925" y="305" width="130" height="14" rx="7" fill="#8FA8E0" fill-opacity="0.45"/>
  <rect x="925" y="335" width="130" height="14" rx="7" fill="#8FA8E0" fill-opacity="0.45"/>
  <rect x="925" y="365" width="130" height="14" rx="7" fill="#8FA8E0" fill-opacity="0.45"/>

  <text x="90" y="120" font-family="ui-monospace,SFMono-Regular,Menlo,monospace"
        font-size="19" fill="#8FA8E0" letter-spacing="6">AI GOVERNANCE</text>
  <text x="90" y="182" font-family="Georgia,serif" font-size="52" fill="#FFFFFF">Model Governance &amp; Secure Deployment</text>
</svg>
